<svg width="350" height="305" viewBox="0 0 350 305" fill="none" xmlns="http://www.w3.org/2000/svg">
<rect width="75.5546" height="21.3834" transform="translate(32.0751 88.6716)" fill="white"/>
<rect width="287.963" height="21.3834" transform="translate(32.0751 137.854)" fill="#DADCDD"/>
<rect width="287.963" height="21.3834" transform="translate(32.0751 169.216)" fill="#DADCDD"/>
<rect width="85.5335" height="21.3834" transform="translate(32.0751 195.589)" fill="#BCBEC0"/>
<rect width="85.5335" height="21.3834" transform="translate(126.162 195.589)" fill="#BCBEC0"/>
<rect width="85.5335" height="21.3834" transform="translate(220.249 195.589)" fill="#BCBEC0"/>
<rect y="51.6072" width="349.974" height="214.546" rx="10.6917" stroke="url(#paint0_radial_17_109)" stroke-width="28.5112" mask="url(#path-1-inside-1_17_109)"/>
<path d="M253.218 111.229C249.141 121.682 247.366 134.143 246.989 139.067C252.652 145.884 258.881 147.588 262.845 148.157C265.677 147.02 271.906 143.786 275.304 139.067C282.666 128.841 308.716 65.2121 316.078 39.647C323.44 14.0819 325.138 3.28778 322.307 1.01534C316.644 0.447227 306.451 15.7863 299.655 26.0123C291.727 35.1021 258.315 98.1626 253.218 111.229Z" fill="#414142"/>
<path d="M230.566 173.153C229.207 179.062 232.265 191.522 233.964 197.014C238.495 182.811 262.279 171.449 262.279 168.04C262.279 164.632 261.713 157.246 261.146 154.406C258.881 153.27 246.422 148.157 243.591 147.02C240.193 148.157 232.265 165.768 230.566 173.153Z" fill="#414142"/>
<path d="M253.218 111.229C249.141 121.682 247.366 134.143 246.989 139.067C252.652 145.884 258.881 147.588 262.845 148.157C265.677 147.02 271.906 143.786 275.304 139.067C282.666 128.841 308.716 65.2121 316.078 39.647C323.44 14.0819 325.138 3.28778 322.307 1.01534C316.644 0.447227 306.451 15.7863 299.655 26.0123C291.727 35.1021 258.315 98.1626 253.218 111.229Z" stroke="black" stroke-width="0.712779"/>
<path d="M230.566 173.153C229.207 179.062 232.265 191.522 233.964 197.014C238.495 182.811 262.279 171.449 262.279 168.04C262.279 164.632 261.713 157.246 261.146 154.406C258.881 153.27 246.422 148.157 243.591 147.02C240.193 148.157 232.265 165.768 230.566 173.153Z" stroke="black" stroke-width="0.712779"/>
<path d="M130.438 297.159L135.072 266.154H214.546L219.179 297.159L234.504 300.723V305H116.183V300.723L130.438 297.159Z" fill="#AE77D5"/>
<defs>
<radialGradient id="paint0_radial_17_109" cx="0" cy="0" r="1" gradientUnits="userSpaceOnUse" gradientTransform="translate(397.018 13.8299) rotate(144.957) scale(590.267 962.861)">
<stop stop-color="#DD48C5"/>
<stop offset="1" stop-color="#1E1EE7" stop-opacity="0"/>
</radialGradient>
</defs>
</svg>
